<svg viewBox="0 0 64 64" xmlns="http://www.w3.org/2000/svg">
  <defs>
    <linearGradient id="petalGrad" x1="0" y1="0" x2="1" y2="1">
      <stop offset="0%" stop-color="#f5d68b" />
      <stop offset="100%" stop-color="#c89438" />
    </linearGradient>
  </defs>
  <rect width="64" height="64" fill="#fdf6f1" />
  <g opacity="0.92">
    <ellipse cx="32" cy="14" rx="3" ry="9" fill="url(#petalGrad)" transform="rotate(0 32 32)" />
    <ellipse cx="32" cy="14" rx="3" ry="9" fill="url(#petalGrad)" transform="rotate(30 32 32)" />
    <ellipse cx="32" cy="14" rx="3" ry="9" fill="url(#petalGrad)" transform="rotate(60 32 32)" />
    <ellipse cx="32" cy="14" rx="3" ry="9" fill="url(#petalGrad)" transform="rotate(90 32 32)" />
    <ellipse cx="32" cy="14" rx="3" ry="9" fill="url(#petalGrad)" transform="rotate(120 32 32)" />
    <ellipse cx="32" cy="14" rx="3" ry="9" fill="url(#petalGrad)" transform="rotate(150 32 32)" />
    <ellipse cx="32" cy="14" rx="3" ry="9" fill="url(#petalGrad)" transform="rotate(180 32 32)" />
    <ellipse cx="32" cy="14" rx="3" ry="9" fill="url(#petalGrad)" transform="rotate(210 32 32)" />
    <ellipse cx="32" cy="14" rx="3" ry="9" fill="url(#petalGrad)" transform="rotate(240 32 32)" />
    <ellipse cx="32" cy="14" rx="3" ry="9" fill="url(#petalGrad)" transform="rotate(270 32 32)" />
    <ellipse cx="32" cy="14" rx="3" ry="9" fill="url(#petalGrad)" transform="rotate(300 32 32)" />
    <ellipse cx="32" cy="14" rx="3" ry="9" fill="url(#petalGrad)" transform="rotate(330 32 32)" />
  </g>
  <circle cx="32" cy="32" r="6" fill="#7a2f43" />
</svg>
